<svg xmlns="http://www.w3.org/2000/svg" viewBox="0 0 64 64">
  <defs>
    <linearGradient id="overcast-night-a" x1="15" y1="5" x2="30" y2="28" gradientUnits="userSpaceOnUse">
      <stop offset="0" stop-color="#fffbeb"/>
      <stop offset="0.45" stop-color="#facc15"/>
      <stop offset="1" stop-color="#f59e0b"/>
    </linearGradient>
    <linearGradient id="overcast-night-b" x1="40.76" y1="23" x2="50.83" y2="40.46" gradientUnits="userSpaceOnUse">
      <stop offset="0" stop-color="#94a3b8"/>
      <stop offset="0.45" stop-color="#64748b"/>
      <stop offset="1" stop-color="#475569"/>
    </linearGradient>
    <linearGradient id="overcast-night-c" x1="22.56" y1="21.96" x2="39.2" y2="50.8" gradientUnits="userSpaceOnUse">
      <stop offset="0" stop-color="#ffffff"/>
      <stop offset="0.5" stop-color="#f1f5f9"/>
      <stop offset="1" stop-color="#dbeafe"/>
    </linearGradient>
  </defs>
  <g transform="translate(1, -7) scale(0.65)">
    <path d="M46.66,36.2A16.66,16.66,0,0,1,29.88,19.65a16.29,16.29,0,0,1,.55-4.15A16.56,16.56,0,1,0,48.5,36.1C47.89,36.16,47.28,36.2,46.66,36.2Z" stroke="#d97706" stroke-linecap="round" stroke-linejoin="round" stroke-width="1.2" fill="url(#overcast-night-a)"/>
  </g>
  <path d="M34.23,33.45a4.05,4.05,0,0,0,4.05,4H54.79a4.34,4.34,0,0,0,.81-8.61,3.52,3.52,0,0,0,.06-.66,4.06,4.06,0,0,0-6.13-3.48,6.08,6.08,0,0,0-11.25,3.19,6.34,6.34,0,0,0,.18,1.46h-.18A4.05,4.05,0,0,0,34.23,33.45Z" stroke="#64748b" stroke-miterlimit="10" stroke-width="0.8" fill="url(#overcast-night-b)"/>
  <path d="M46.5,31.5l-.32,0a10.49,10.49,0,0,0-19.11-8,7,7,0,0,0-10.57,6,7.21,7.21,0,0,0,.1,1.14A7.5,7.5,0,0,0,18,45.5a4.19,4.19,0,0,0,.5,0v0h28a7,7,0,0,0,0-14Z" stroke="#94a3b8" stroke-miterlimit="10" stroke-width="1" fill="url(#overcast-night-c)"/>
</svg>
